<svg width="294" height="527" viewBox="0 0 294 527" fill="none" xmlns="http://www.w3.org/2000/svg">
<path d="M7.64795 495.85V39.0266L15.791 12.7507H71.4352L74.3004 21.0089H220.423L222.534 12H278.028L287.377 39.0266V493.973L278.48 521H16.2434L7.64795 495.85Z" fill="url(#paint0_linear_170_193)" stroke="#0096FF" stroke-width="2"/>
<path d="M3.33447 499.211V33.9919L11.7122 7.23316H73.9819L76.4286 15.643H218.029L220.476 6.46863H281.504L291.123 33.9919V497.299L281.97 524.823H12.1776L3.33447 499.211Z" stroke="#0096FF" stroke-width="2"/>
<path d="M222.006 6.46863L219.253 16.1505H216.807L219.778 6.46863H222.006Z" fill="#0096FF" stroke="#0096FF"/>
<path d="M72.1473 7.21326L75.2931 16.1504H77.6523L74.5066 7.21326H72.1473Z" fill="#0096FF" stroke="#0096FF"/>
<g filter="url(#filter0_f_170_193)">
<path d="M7.00447 185.956L3.33447 172.55V359.486L7.00447 348.314V185.956Z" fill="#0096FF" stroke="#0096FF"/>
<path d="M287.148 346.08L291.276 359.486V172.55L287.148 183.722V346.08Z" fill="#0096FF" stroke="#0096FF"/>
<path d="M94.7334 514.396L90.2988 524.823L205.598 524.078L201.163 514.396H94.7334Z" fill="#044EBC" stroke="#044EBC"/>
<path d="M208.458 524.45L204.329 513.651H207.387L211.363 524.45H208.458Z" fill="#0096FF" stroke="#0096FF"/>
<path d="M214.468 524.45L210.339 513.651H213.397L217.373 524.45H214.468Z" fill="#0096FF" stroke="#0096FF"/>
<path d="M220.476 524.45L216.348 513.651H219.406L223.382 524.45H220.476Z" fill="#0096FF" stroke="#0096FF"/>
<path d="M226.485 524.45L222.356 513.651H225.415L229.391 524.45H226.485Z" fill="#0096FF" stroke="#0096FF"/>
<path d="M232.495 524.45L228.366 513.651H231.425L235.4 524.45H232.495Z" fill="#0096FF" stroke="#0096FF"/>
<path d="M238.505 524.45L234.376 513.651H237.434L241.41 524.45H238.505Z" fill="#0096FF" stroke="#0096FF"/>
<path d="M244.514 524.45L240.385 513.651H243.443L247.419 524.45H244.514Z" fill="#0096FF" stroke="#0096FF"/>
<path d="M250.522 524.45L246.394 513.651H249.452L253.428 524.45H250.522Z" fill="#0096FF" stroke="#0096FF"/>
<path d="M256.532 524.45L252.403 513.651H255.462L259.437 524.45H256.532Z" fill="#0096FF" stroke="#0096FF"/>
<path d="M88.5409 513.651L84.4121 524.45H87.4704L91.4463 513.651H88.5409Z" fill="#0096FF" stroke="#0096FF"/>
<path d="M82.5321 513.651L78.4033 524.45H81.4617L85.4375 513.651H82.5321Z" fill="#0096FF" stroke="#0096FF"/>
<path d="M76.5233 513.651L72.3945 524.45H75.4529L79.4287 513.651H76.5233Z" fill="#0096FF" stroke="#0096FF"/>
<path d="M70.5135 513.651L66.3848 524.45H69.4431L73.4189 513.651H70.5135Z" fill="#0096FF" stroke="#0096FF"/>
<path d="M64.5037 513.651L60.375 524.45H63.4333L67.4092 513.651H64.5037Z" fill="#0096FF" stroke="#0096FF"/>
<path d="M58.4945 513.651L54.3657 524.45H57.4241L61.3999 513.651H58.4945Z" fill="#0096FF" stroke="#0096FF"/>
<path d="M52.4857 513.651L48.3569 524.45H51.4153L55.3911 513.651H52.4857Z" fill="#0096FF" stroke="#0096FF"/>
<path d="M46.4764 513.651L42.3477 524.45H45.406L49.3818 513.651H46.4764Z" fill="#0096FF" stroke="#0096FF"/>
<path d="M40.4666 513.651L36.3379 524.45H39.3962L43.372 513.651H40.4666Z" fill="#0096FF" stroke="#0096FF"/>
<path d="M233.932 2L231.639 8.70285H246.93L244.942 2H233.932Z" fill="#0096FF" stroke="#0096FF"/>
<path d="M258.4 3.11719L255.953 9.07528H282.255L290.665 34.3972V71.6353L292.5 63.0705V30.301L283.937 3.11719H258.4Z" fill="#0096FF" stroke="#0096FF"/>
<path d="M35.6002 2.74487L38.0469 8.70297H11.7452L3.33483 34.0249V71.2629L1.49983 62.6982V29.9287L10.0632 2.74487H35.6002Z" fill="#0096FF" stroke="#0096FF"/>
<path d="M49.3631 2.74487L47.0693 9.44773H62.361L60.3731 2.74487H49.3631Z" fill="#0096FF" stroke="#0096FF"/>
</g>
<path d="M10.7219 186.339L3.54932 173V359L10.7219 347.884V186.339Z" fill="#0096FF" stroke="#0096FF"/>
<path d="M283.278 345.661L291.476 359V173L283.278 184.116V345.661Z" fill="#0096FF" stroke="#0096FF"/>
<path d="M94.7334 514.396L90.2988 524.823L205.598 524.078L201.163 514.396H94.7334Z" fill="#0096FF" stroke="#0096FF"/>
<path d="M208.51 524.45L204.381 513.651H207.439L211.415 524.45H208.51Z" fill="#0096FF" stroke="#0096FF"/>
<path d="M214.518 524.45L210.39 513.651H213.448L217.424 524.45H214.518Z" fill="#0096FF" stroke="#0096FF"/>
<path d="M220.527 524.45L216.398 513.651H219.457L223.433 524.45H220.527Z" fill="#0096FF" stroke="#0096FF"/>
<path d="M226.537 524.45L222.408 513.651H225.467L229.442 524.45H226.537Z" fill="#0096FF" stroke="#0096FF"/>
<path d="M232.547 524.45L228.418 513.651H231.476L235.452 524.45H232.547Z" fill="#0096FF" stroke="#0096FF"/>
<path d="M238.556 524.45L234.427 513.651H237.485L241.461 524.45H238.556Z" fill="#0096FF" stroke="#0096FF"/>
<path d="M244.565 524.45L240.437 513.651H243.495L247.471 524.45H244.565Z" fill="#0096FF" stroke="#0096FF"/>
<path d="M250.574 524.45L246.445 513.651H249.504L253.479 524.45H250.574Z" fill="#0096FF" stroke="#0096FF"/>
<path d="M256.584 524.45L252.455 513.651H255.513L259.489 524.45H256.584Z" fill="#0096FF" stroke="#0096FF"/>
<path d="M88.5409 513.651L84.4121 524.45H87.4704L91.4463 513.651H88.5409Z" fill="#0096FF" stroke="#0096FF"/>
<path d="M82.5321 513.651L78.4033 524.45H81.4617L85.4375 513.651H82.5321Z" fill="#0096FF" stroke="#0096FF"/>
<path d="M76.5233 513.651L72.3945 524.45H75.4529L79.4287 513.651H76.5233Z" fill="#0096FF" stroke="#0096FF"/>
<path d="M70.5135 513.651L66.3848 524.45H69.4431L73.4189 513.651H70.5135Z" fill="#0096FF" stroke="#0096FF"/>
<path d="M64.5037 513.651L60.375 524.45H63.4333L67.4092 513.651H64.5037Z" fill="#0096FF" stroke="#0096FF"/>
<path d="M58.4945 513.651L54.3657 524.45H57.4241L61.3999 513.651H58.4945Z" fill="#0096FF" stroke="#0096FF"/>
<path d="M52.4857 513.651L48.3569 524.45H51.4153L55.3911 513.651H52.4857Z" fill="#0096FF" stroke="#0096FF"/>
<path d="M46.4764 513.651L42.3477 524.45H45.406L49.3818 513.651H46.4764Z" fill="#0096FF" stroke="#0096FF"/>
<path d="M40.4666 513.651L36.3379 524.45H39.3962L43.372 513.651H40.4666Z" fill="#0096FF" stroke="#0096FF"/>
<path d="M233.932 2L231.639 8.70285H246.93L244.942 2H233.932Z" fill="#0096FF" stroke="#0096FF"/>
<path d="M258.4 3.11719L255.953 9.07528H282.255L290.665 34.3972V71.6353L292.5 63.0705V30.301L283.937 3.11719H258.4Z" fill="#0096FF" stroke="#0096FF"/>
<path d="M35.6002 2.74487L38.0469 8.70297H11.7452L3.33483 34.0249V71.2629L1.49983 62.6982V29.9287L10.0632 2.74487H35.6002Z" fill="#0096FF" stroke="#0096FF"/>
<path d="M49.3631 2.74487L47.0693 9.44773H62.361L60.3731 2.74487H49.3631Z" fill="#0096FF" stroke="#0096FF"/>
<defs>
<filter id="filter0_f_170_193" x="0" y="0.5" width="294" height="525.828" filterUnits="userSpaceOnUse" color-interpolation-filters="sRGB">
<feFlood flood-opacity="0" result="BackgroundImageFix"/>
<feBlend mode="normal" in="SourceGraphic" in2="BackgroundImageFix" result="shape"/>
<feGaussianBlur stdDeviation="0.5" result="effect1_foregroundBlur_170_193"/>
</filter>
<linearGradient id="paint0_linear_170_193" x1="147.437" y1="-149.033" x2="147.437" y2="634.361" gradientUnits="userSpaceOnUse">
<stop stop-color="#082951" stop-opacity="0.78"/>
<stop offset="0.916667" stop-color="#062244" stop-opacity="0.2"/>
</linearGradient>
</defs>
</svg>
