<svg width="1329" height="911" viewBox="0 0 1329 911" fill="none" xmlns="http://www.w3.org/2000/svg">
<path d="M23 850.211V72.9823L60.3779 28.2773H315.794L328.945 42.3274H999.671L1009.36 27H1264.08L1307 72.9823V847.018L1266.16 893H62.4544L23 850.211Z" fill="url(#paint0_linear_124_222)" stroke="#0096FF" stroke-width="2"/>
<path d="M15.292 860.058V61.888L53.1499 15.9784H334.541L345.597 30.4072H985.476L996.532 14.6667H1272.31L1315.78 61.888V856.779L1274.42 904H55.2531L15.292 860.058Z" stroke="#0096FF" stroke-width="2"/>
<path d="M1003.44 14.6667L991.004 31.2779H979.948L993.374 14.6667H1003.44Z" fill="#0096FF" stroke="#0096FF"/>
<path d="M326.248 15.9443L340.464 31.2777H351.125L336.91 15.9443H326.248Z" fill="#0096FF" stroke="#0096FF"/>
<g filter="url(#filter0_f_124_222)">
<g filter="url(#filter1_f_124_222)">
<path d="M31.8763 322.611L15.292 299.611V620.333L31.8763 601.167V322.611Z" fill="#0096FF"/>
<path d="M31.8763 322.611L15.292 299.611V620.333L31.8763 601.167V322.611Z" stroke="#0096FF"/>
</g>
<g filter="url(#filter2_f_124_222)">
<path d="M1297.81 597.333L1316.47 620.333V299.611L1297.81 318.778V597.333Z" fill="#0096FF"/>
<path d="M1297.81 597.333L1316.47 620.333V299.611L1297.81 318.778V597.333Z" stroke="#0096FF"/>
</g>
<g filter="url(#filter3_f_124_222)">
<path d="M423.682 886.111L403.642 904L924.667 902.722L904.627 886.111H423.682Z" fill="#044EBC"/>
<path d="M423.682 886.111L403.642 904L924.667 902.722L904.627 886.111H423.682Z" stroke="#044EBC"/>
</g>
<path d="M932.959 903.361L914.302 884.833H928.122L946.088 903.361H932.959Z" fill="#0096FF" stroke="#0096FF"/>
<path d="M951.616 903.361L932.959 884.833H946.779L964.746 903.361H951.616Z" fill="#0096FF" stroke="#0096FF"/>
<path d="M972.347 903.361L953.689 884.833H967.51L985.476 903.361H972.347Z" fill="#0096FF" stroke="#0096FF"/>
<path d="M991.695 903.361L973.038 884.833H986.858L1004.82 903.361H991.695Z" fill="#0096FF" stroke="#0096FF"/>
<path d="M1010.35 903.361L991.695 884.833H1005.52L1023.48 903.361H1010.35Z" fill="#0096FF" stroke="#0096FF"/>
<path d="M1029.7 903.361L1011.04 884.833H1024.86L1042.83 903.361H1029.7Z" fill="#0096FF" stroke="#0096FF"/>
<path d="M1049.74 903.361L1031.08 884.833H1044.9L1062.87 903.361H1049.74Z" fill="#0096FF" stroke="#0096FF"/>
<path d="M1068.4 903.361L1049.74 884.833H1063.56L1081.53 903.361H1068.4Z" fill="#0096FF" stroke="#0096FF"/>
<path d="M1087.75 903.361L1069.09 884.833H1082.91L1100.88 903.361H1087.75Z" fill="#0096FF" stroke="#0096FF"/>
<path d="M401.569 884.833L382.912 903.361H396.732L414.698 884.833H401.569Z" fill="#0096FF" stroke="#0096FF"/>
<path d="M382.912 884.833L364.254 903.361H378.075L396.041 884.833H382.912Z" fill="#0096FF" stroke="#0096FF"/>
<path d="M363.563 884.833L344.906 903.361H358.726L376.692 884.833H363.563Z" fill="#0096FF" stroke="#0096FF"/>
<path d="M342.833 884.833L324.175 903.361H337.996L355.962 884.833H342.833Z" fill="#0096FF" stroke="#0096FF"/>
<path d="M324.175 884.833L305.518 903.361H319.338L337.305 884.833H324.175Z" fill="#0096FF" stroke="#0096FF"/>
<path d="M304.827 884.833L286.17 903.361H299.99L317.957 884.833H304.827Z" fill="#0096FF" stroke="#0096FF"/>
<path d="M284.788 884.833L266.13 903.361H279.951L297.917 884.833H284.788Z" fill="#0096FF" stroke="#0096FF"/>
<path d="M266.131 884.833L247.473 903.361H261.293L279.26 884.833H266.131Z" fill="#0096FF" stroke="#0096FF"/>
<path d="M246.782 884.833L228.125 903.361H241.945L259.911 884.833H246.782Z" fill="#0096FF" stroke="#0096FF"/>
<g filter="url(#filter4_f_124_222)">
<path d="M1057.34 7L1046.98 18.5H1116.08L1107.09 7H1057.34Z" fill="#0096FF"/>
<path d="M1057.34 7L1046.98 18.5H1116.08L1107.09 7H1057.34Z" stroke="#0096FF"/>
</g>
<g filter="url(#filter5_f_124_222)">
<path d="M1167.9 8.91675L1156.85 19.139H1275.7L1313.71 62.5834V126.472L1322 111.778V55.5556L1283.3 8.91675H1167.9Z" fill="#0096FF"/>
<path d="M1167.9 8.91675L1156.85 19.139H1275.7L1313.71 62.5834V126.472L1322 111.778V55.5556L1283.3 8.91675H1167.9Z" stroke="#0096FF"/>
</g>
<g filter="url(#filter6_f_124_222)">
<path d="M161.096 8.27783L172.152 18.5001H53.2979L15.2921 61.9445V125.833L6.99995 111.139V54.9167L45.6967 8.27783H161.096Z" fill="#0096FF"/>
<path d="M161.096 8.27783L172.152 18.5001H53.2979L15.2921 61.9445V125.833L6.99995 111.139V54.9167L45.6967 8.27783H161.096Z" stroke="#0096FF"/>
</g>
<g filter="url(#filter7_f_124_222)">
<path d="M223.288 8.27783L212.922 19.7778H282.024L273.041 8.27783H223.288Z" fill="#0096FF"/>
<path d="M223.288 8.27783L212.922 19.7778H282.024L273.041 8.27783H223.288Z" stroke="#0096FF"/>
</g>
</g>
<path d="M31.8763 322.611L15.292 299.611V620.333L31.8763 601.167V322.611Z" fill="#0096FF" stroke="#0096FF"/>
<path d="M1297.81 597.333L1316.47 620.333V299.611L1297.81 318.778V597.333Z" fill="#0096FF" stroke="#0096FF"/>
<path d="M423.682 886.111L403.642 904L924.667 902.722L904.627 886.111H423.682Z" fill="#0096FF" stroke="#0096FF"/>
<path d="M932.959 903.361L914.302 884.833H928.122L946.088 903.361H932.959Z" fill="#0096FF" stroke="#0096FF"/>
<path d="M951.616 903.361L932.959 884.833H946.779L964.746 903.361H951.616Z" fill="#0096FF" stroke="#0096FF"/>
<path d="M972.347 903.361L953.689 884.833H967.51L985.476 903.361H972.347Z" fill="#0096FF" stroke="#0096FF"/>
<path d="M991.695 903.361L973.038 884.833H986.858L1004.82 903.361H991.695Z" fill="#0096FF" stroke="#0096FF"/>
<path d="M1010.35 903.361L991.695 884.833H1005.52L1023.48 903.361H1010.35Z" fill="#0096FF" stroke="#0096FF"/>
<path d="M1029.7 903.361L1011.04 884.833H1024.86L1042.83 903.361H1029.7Z" fill="#0096FF" stroke="#0096FF"/>
<path d="M1049.74 903.361L1031.08 884.833H1044.9L1062.87 903.361H1049.74Z" fill="#0096FF" stroke="#0096FF"/>
<path d="M1068.4 903.361L1049.74 884.833H1063.56L1081.53 903.361H1068.4Z" fill="#0096FF" stroke="#0096FF"/>
<path d="M1087.75 903.361L1069.09 884.833H1082.91L1100.88 903.361H1087.75Z" fill="#0096FF" stroke="#0096FF"/>
<path d="M401.569 884.833L382.912 903.361H396.732L414.698 884.833H401.569Z" fill="#0096FF" stroke="#0096FF"/>
<path d="M382.912 884.833L364.254 903.361H378.075L396.041 884.833H382.912Z" fill="#0096FF" stroke="#0096FF"/>
<path d="M363.563 884.833L344.906 903.361H358.726L376.692 884.833H363.563Z" fill="#0096FF" stroke="#0096FF"/>
<path d="M344.215 884.833L325.558 903.361H339.378L357.344 884.833H344.215Z" fill="#0096FF" stroke="#0096FF"/>
<path d="M324.175 884.833L305.518 903.361H319.338L337.305 884.833H324.175Z" fill="#0096FF" stroke="#0096FF"/>
<path d="M304.827 884.833L286.17 903.361H299.99L317.957 884.833H304.827Z" fill="#0096FF" stroke="#0096FF"/>
<path d="M284.788 884.833L266.13 903.361H279.951L297.917 884.833H284.788Z" fill="#0096FF" stroke="#0096FF"/>
<path d="M266.131 884.833L247.473 903.361H261.293L279.26 884.833H266.131Z" fill="#0096FF" stroke="#0096FF"/>
<path d="M246.782 884.833L228.125 903.361H241.945L259.911 884.833H246.782Z" fill="#0096FF" stroke="#0096FF"/>
<path d="M1057.34 7L1046.98 18.5H1116.08L1107.09 7H1057.34Z" fill="#0096FF" stroke="#0096FF"/>
<path d="M1167.9 8.91675L1156.85 19.139H1275.7L1313.71 62.5834V126.472L1322 111.778V55.5556L1283.3 8.91675H1167.9Z" fill="#0096FF" stroke="#0096FF"/>
<path d="M161.096 8.27783L172.152 18.5001H53.2979L15.2921 61.9445V125.833L6.99995 111.139V54.9167L45.6967 8.27783H161.096Z" fill="#0096FF" stroke="#0096FF"/>
<path d="M223.288 8.27783L212.922 19.7778H282.024L273.041 8.27783H223.288Z" fill="#0096FF" stroke="#0096FF"/>
<defs>
<filter id="filter0_f_124_222" x="4.5" y="4.5" width="1320" height="902.003" filterUnits="userSpaceOnUse" color-interpolation-filters="sRGB">
<feFlood flood-opacity="0" result="BackgroundImageFix"/>
<feBlend mode="normal" in="SourceGraphic" in2="BackgroundImageFix" result="shape"/>
<feGaussianBlur stdDeviation="1" result="effect1_foregroundBlur_124_222"/>
</filter>
<filter id="filter1_f_124_222" x="8.79199" y="292.063" width="29.5845" height="335.613" filterUnits="userSpaceOnUse" color-interpolation-filters="sRGB">
<feFlood flood-opacity="0" result="BackgroundImageFix"/>
<feBlend mode="normal" in="SourceGraphic" in2="BackgroundImageFix" result="shape"/>
<feGaussianBlur stdDeviation="3" result="effect1_foregroundBlur_124_222"/>
</filter>
<filter id="filter2_f_124_222" x="1291.31" y="292.381" width="31.6572" height="335.363" filterUnits="userSpaceOnUse" color-interpolation-filters="sRGB">
<feFlood flood-opacity="0" result="BackgroundImageFix"/>
<feBlend mode="normal" in="SourceGraphic" in2="BackgroundImageFix" result="shape"/>
<feGaussianBlur stdDeviation="3" result="effect1_foregroundBlur_124_222"/>
</filter>
<filter id="filter3_f_124_222" x="396.328" y="879.611" width="535.722" height="30.8921" filterUnits="userSpaceOnUse" color-interpolation-filters="sRGB">
<feFlood flood-opacity="0" result="BackgroundImageFix"/>
<feBlend mode="normal" in="SourceGraphic" in2="BackgroundImageFix" result="shape"/>
<feGaussianBlur stdDeviation="3" result="effect1_foregroundBlur_124_222"/>
</filter>
<filter id="filter4_f_124_222" x="1039.85" y="0.5" width="83.2505" height="24.5" filterUnits="userSpaceOnUse" color-interpolation-filters="sRGB">
<feFlood flood-opacity="0" result="BackgroundImageFix"/>
<feBlend mode="normal" in="SourceGraphic" in2="BackgroundImageFix" result="shape"/>
<feGaussianBlur stdDeviation="3" result="effect1_foregroundBlur_124_222"/>
</filter>
<filter id="filter5_f_124_222" x="1149.57" y="2.41675" width="178.93" height="131.959" filterUnits="userSpaceOnUse" color-interpolation-filters="sRGB">
<feFlood flood-opacity="0" result="BackgroundImageFix"/>
<feBlend mode="normal" in="SourceGraphic" in2="BackgroundImageFix" result="shape"/>
<feGaussianBlur stdDeviation="3" result="effect1_foregroundBlur_124_222"/>
</filter>
<filter id="filter6_f_124_222" x="0.5" y="1.77783" width="178.93" height="131.959" filterUnits="userSpaceOnUse" color-interpolation-filters="sRGB">
<feFlood flood-opacity="0" result="BackgroundImageFix"/>
<feBlend mode="normal" in="SourceGraphic" in2="BackgroundImageFix" result="shape"/>
<feGaussianBlur stdDeviation="3" result="effect1_foregroundBlur_124_222"/>
</filter>
<filter id="filter7_f_124_222" x="205.798" y="1.77783" width="83.2505" height="24.5" filterUnits="userSpaceOnUse" color-interpolation-filters="sRGB">
<feFlood flood-opacity="0" result="BackgroundImageFix"/>
<feBlend mode="normal" in="SourceGraphic" in2="BackgroundImageFix" result="shape"/>
<feGaussianBlur stdDeviation="3" result="effect1_foregroundBlur_124_222"/>
</filter>
<linearGradient id="paint0_linear_124_222" x1="664.654" y1="-246.978" x2="664.654" y2="1085.87" gradientUnits="userSpaceOnUse">
<stop stop-color="#082951" stop-opacity="0.89"/>
<stop offset="0.916667" stop-color="#062244" stop-opacity="0.81"/>
</linearGradient>
</defs>
</svg>
