<svg width="250" height="36" viewBox="0 0 250 36" fill="none" xmlns="http://www.w3.org/2000/svg">
<mask id="path-1-inside-1_39_43" fill="white">
<path fill-rule="evenodd" clip-rule="evenodd" d="M239.221 1.0434L249.601 7.64293V28.7894L239.283 35.3496H11.2984L0.485352 28.4748V7.957L11.3596 1.04325L11.2884 0.913055H239.292L239.221 1.0434Z"/>
</mask>
<path fill-rule="evenodd" clip-rule="evenodd" d="M239.221 1.0434L249.601 7.64293V28.7894L239.283 35.3496H11.2984L0.485352 28.4748V7.957L11.3596 1.04325L11.2884 0.913055H239.292L239.221 1.0434Z" fill="url(#paint0_linear_39_43)"/>
<path d="M249.601 7.64293H250.601V7.09372L250.137 6.79905L249.601 7.64293ZM239.221 1.0434L238.343 0.563559L237.894 1.38496L238.684 1.88728L239.221 1.0434ZM249.601 28.7894L250.137 29.6333L250.601 29.3386V28.7894H249.601ZM239.283 35.3496V36.3496H239.574L239.819 36.1935L239.283 35.3496ZM11.2984 35.3496L10.7618 36.1935L11.0074 36.3496H11.2984V35.3496ZM0.485352 28.4748H-0.514648V29.024L-0.0511796 29.3187L0.485352 28.4748ZM0.485352 7.957L-0.0511797 7.11312L-0.514648 7.40779V7.957H0.485352ZM11.3596 1.04325L11.8961 1.88713L12.6862 1.38484L12.237 0.563443L11.3596 1.04325ZM11.2884 0.913055V-0.0869446H9.60176L10.411 1.39287L11.2884 0.913055ZM239.292 0.913055L240.169 1.3929L240.979 -0.0869446H239.292V0.913055ZM250.137 6.79905L239.757 0.199521L238.684 1.88728L249.064 8.48681L250.137 6.79905ZM250.601 28.7894V7.64293H248.601V28.7894H250.601ZM239.819 36.1935L250.137 29.6333L249.064 27.9455L238.746 34.5057L239.819 36.1935ZM11.2984 36.3496H239.283V34.3496H11.2984V36.3496ZM-0.0511796 29.3187L10.7618 36.1935L11.8349 34.5057L1.02188 27.6309L-0.0511796 29.3187ZM-0.514648 7.957V28.4748H1.48535V7.957H-0.514648ZM10.8231 0.199373L-0.0511797 7.11312L1.02188 8.80088L11.8961 1.88713L10.8231 0.199373ZM10.411 1.39287L10.4822 1.52306L12.237 0.563443L12.1658 0.433245L10.411 1.39287ZM239.292 -0.0869446H11.2884V1.91306H239.292V-0.0869446ZM240.098 1.52324L240.169 1.3929L238.415 0.433212L238.343 0.563559L240.098 1.52324Z" fill="#4495DE" fill-opacity="0.25" mask="url(#path-1-inside-1_39_43)"/>
<defs>
<linearGradient id="paint0_linear_39_43" x1="125.043" y1="0.913055" x2="125.043" y2="35.3496" gradientUnits="userSpaceOnUse">
<stop stop-color="#003872"/>
<stop offset="1" stop-color="#1470BD"/>
</linearGradient>
</defs>
</svg>
