<svg width="1027" height="901" viewBox="0 0 1027 901" fill="none" xmlns="http://www.w3.org/2000/svg">
<path d="M23.1367 849.292V65.5258L51.7913 20.4448H247.598L257.68 34.6131H771.87L779.299 19.1567H974.575L1007.47 65.5258V846.072L976.166 892.441H53.3832L23.1367 849.292Z" fill="url(#paint0_linear_203_2)" stroke="#0096FF" stroke-width="2"/>
<path d="M7.95508 855.058V56.8882L37.4353 10.9787H256.556L265.166 25.4074H763.443L772.053 9.66699H986.806L1020.65 56.8882V851.779L988.444 899H39.073L7.95508 855.058Z" stroke="#0096FF" stroke-width="2"/>
<path d="M777.437 9.66699L767.751 26.2781H759.142L769.596 9.66699H777.437Z" fill="#0096FF" stroke="#0096FF"/>
<path d="M250.101 10.9446L261.171 26.2779H269.473L258.403 10.9446H250.101Z" fill="#0096FF" stroke="#0096FF"/>
<g filter="url(#filter0_f_203_2)">
<path d="M20.8694 317.611L7.95508 294.611V615.333L20.8694 596.166V317.611Z" fill="#0096FF" stroke="#0096FF"/>
<path d="M1006.66 592.333L1021.19 615.333V294.611L1006.66 313.778V592.333Z" fill="#0096FF" stroke="#0096FF"/>
<path d="M329.579 881.111L313.975 899L719.7 897.722L704.095 881.111H329.579Z" fill="#044EBC" stroke="#044EBC"/>
<path d="M729.764 898.361L715.235 879.833H725.997L739.988 898.361H729.764Z" fill="#0096FF" stroke="#0096FF"/>
<path d="M750.911 898.361L736.383 879.833H747.145L761.135 898.361H750.911Z" fill="#0096FF" stroke="#0096FF"/>
<path d="M772.055 898.361L757.526 879.833H768.288L782.279 898.361H772.055Z" fill="#0096FF" stroke="#0096FF"/>
<path d="M793.201 898.361L778.672 879.833H789.434L803.424 898.361H793.201Z" fill="#0096FF" stroke="#0096FF"/>
<path d="M814.348 898.361L799.819 879.833H810.581L824.572 898.361H814.348Z" fill="#0096FF" stroke="#0096FF"/>
<path d="M835.495 898.361L820.967 879.833H831.729L845.719 898.361H835.495Z" fill="#0096FF" stroke="#0096FF"/>
<path d="M856.639 898.361L842.11 879.833H852.872L866.863 898.361H856.639Z" fill="#0096FF" stroke="#0096FF"/>
<path d="M877.784 898.361L863.256 879.833H874.018L888.008 898.361H877.784Z" fill="#0096FF" stroke="#0096FF"/>
<path d="M898.932 898.361L884.403 879.833H895.165L909.156 898.361H898.932Z" fill="#0096FF" stroke="#0096FF"/>
<path d="M307.788 879.833L293.26 898.361H304.022L318.012 879.833H307.788Z" fill="#0096FF" stroke="#0096FF"/>
<path d="M286.644 879.833L272.115 898.361H282.877L296.868 879.833H286.644Z" fill="#0096FF" stroke="#0096FF"/>
<path d="M265.5 879.833L250.972 898.361H261.734L275.724 879.833H265.5Z" fill="#0096FF" stroke="#0096FF"/>
<path d="M244.353 879.833L229.824 898.361H240.586L254.577 879.833H244.353Z" fill="#0096FF" stroke="#0096FF"/>
<path d="M223.204 879.833L208.676 898.361H219.438L233.428 879.833H223.204Z" fill="#0096FF" stroke="#0096FF"/>
<path d="M202.06 879.833L187.531 898.361H198.293L212.284 879.833H202.06Z" fill="#0096FF" stroke="#0096FF"/>
<path d="M180.912 879.833L166.384 898.361H177.146L191.136 879.833H180.912Z" fill="#0096FF" stroke="#0096FF"/>
<path d="M159.767 879.833L145.238 898.361H156L169.991 879.833H159.767Z" fill="#0096FF" stroke="#0096FF"/>
<path d="M138.619 879.833L124.091 898.361H134.853L148.843 879.833H138.619Z" fill="#0096FF" stroke="#0096FF"/>
<path d="M819.406 2L811.335 13.5H865.145L858.149 2H819.406Z" fill="#0096FF" stroke="#0096FF"/>
<path d="M905.504 3.91699L896.895 14.1392H989.447L1019.04 57.5837V121.473L1025.5 106.778V50.5559L995.366 3.91699H905.504Z" fill="#0096FF" stroke="#0096FF"/>
<path d="M121.496 3.27759L130.105 13.4998H37.5527L7.95739 56.9443V120.833L1.50023 106.139V49.9165L31.6337 3.27759H121.496Z" fill="#0096FF" stroke="#0096FF"/>
<path d="M169.925 3.27759L161.854 14.7776H215.663L208.668 3.27759H169.925Z" fill="#0096FF" stroke="#0096FF"/>
</g>
<path d="M33.9523 318.267L8.71289 295.382V614.5L33.9523 595.429V318.267Z" fill="#0096FF" stroke="#0096FF"/>
<path d="M993.049 591.615L1021.89 614.5V295.382L993.049 314.453V591.615Z" fill="#0096FF" stroke="#0096FF"/>
<path d="M329.579 881.111L313.975 899L719.7 897.722L704.095 881.111H329.579Z" fill="#0096FF" stroke="#0096FF"/>
<path d="M729.946 898.361L715.417 879.833H726.179L740.169 898.361H729.946Z" fill="#0096FF" stroke="#0096FF"/>
<path d="M751.089 898.361L736.561 879.833H747.322L761.313 898.361H751.089Z" fill="#0096FF" stroke="#0096FF"/>
<path d="M772.235 898.361L757.706 879.833H768.468L782.459 898.361H772.235Z" fill="#0096FF" stroke="#0096FF"/>
<path d="M793.382 898.361L778.854 879.833H789.615L803.606 898.361H793.382Z" fill="#0096FF" stroke="#0096FF"/>
<path d="M814.53 898.361L800.001 879.833H810.763L824.753 898.361H814.53Z" fill="#0096FF" stroke="#0096FF"/>
<path d="M835.675 898.361L821.146 879.833H831.908L845.899 898.361H835.675Z" fill="#0096FF" stroke="#0096FF"/>
<path d="M856.823 898.361L842.294 879.833H853.056L867.046 898.361H856.823Z" fill="#0096FF" stroke="#0096FF"/>
<path d="M877.966 898.361L863.438 879.833H874.199L888.19 898.361H877.966Z" fill="#0096FF" stroke="#0096FF"/>
<path d="M899.114 898.361L884.585 879.833H895.347L909.337 898.361H899.114Z" fill="#0096FF" stroke="#0096FF"/>
<path d="M307.788 879.833L293.26 898.361H304.022L318.012 879.833H307.788Z" fill="#0096FF" stroke="#0096FF"/>
<path d="M286.644 879.833L272.115 898.361H282.877L296.868 879.833H286.644Z" fill="#0096FF" stroke="#0096FF"/>
<path d="M265.5 879.833L250.972 898.361H261.734L275.724 879.833H265.5Z" fill="#0096FF" stroke="#0096FF"/>
<path d="M244.353 879.833L229.824 898.361H240.586L254.577 879.833H244.353Z" fill="#0096FF" stroke="#0096FF"/>
<path d="M223.204 879.833L208.676 898.361H219.438L233.428 879.833H223.204Z" fill="#0096FF" stroke="#0096FF"/>
<path d="M202.06 879.833L187.531 898.361H198.293L212.284 879.833H202.06Z" fill="#0096FF" stroke="#0096FF"/>
<path d="M180.912 879.833L166.384 898.361H177.146L191.136 879.833H180.912Z" fill="#0096FF" stroke="#0096FF"/>
<path d="M159.767 879.833L145.238 898.361H156L169.991 879.833H159.767Z" fill="#0096FF" stroke="#0096FF"/>
<path d="M138.619 879.833L124.091 898.361H134.853L148.843 879.833H138.619Z" fill="#0096FF" stroke="#0096FF"/>
<path d="M819.406 2L811.335 13.5H865.145L858.149 2H819.406Z" fill="#0096FF" stroke="#0096FF"/>
<path d="M905.504 3.91699L896.895 14.1392H989.447L1019.04 57.5837V121.473L1025.5 106.778V50.5559L995.366 3.91699H905.504Z" fill="#0096FF" stroke="#0096FF"/>
<path d="M121.496 3.27759L130.105 13.4998H37.5527L7.95739 56.9443V120.833L1.50023 106.139V49.9165L31.6337 3.27759H121.496Z" fill="#0096FF" stroke="#0096FF"/>
<path d="M169.925 3.27759L161.854 14.7776H215.663L208.668 3.27759H169.925Z" fill="#0096FF" stroke="#0096FF"/>
<defs>
<filter id="filter0_f_203_2" x="0" y="0.5" width="1027" height="900.003" filterUnits="userSpaceOnUse" color-interpolation-filters="sRGB">
<feFlood flood-opacity="0" result="BackgroundImageFix"/>
<feBlend mode="normal" in="SourceGraphic" in2="BackgroundImageFix" result="shape"/>
<feGaussianBlur stdDeviation="0.5" result="effect1_foregroundBlur_203_2"/>
</filter>
<linearGradient id="paint0_linear_203_2" x1="515.04" y1="-257.126" x2="515.04" y2="1086.93" gradientUnits="userSpaceOnUse">
<stop stop-color="#082951" stop-opacity="0.78"/>
<stop offset="0.916667" stop-color="#062244" stop-opacity="0.2"/>
</linearGradient>
</defs>
</svg>
