<svg width="707" height="531" viewBox="0 0 707 531" fill="none" xmlns="http://www.w3.org/2000/svg">
<path d="M16.375 499.796V39.3223L36.075 12.8366H170.692L177.623 21.1607H531.129L536.237 12.0798H670.489L693.107 39.3223V497.904L671.583 525.147H37.1695L16.375 499.796Z" fill="url(#paint0_linear_203_2)" stroke="#0096FF" stroke-width="2"/>
<path d="M5.9375 503.184V34.2475L26.2051 7.27504H176.851L182.77 15.7521H525.336L531.255 6.50439H678.898L702.168 34.2475V501.257L680.024 529H27.3311L5.9375 503.184Z" stroke="#0096FF" stroke-width="2"/>
<path d="M534.957 6.50439L528.298 16.2637H522.379L529.566 6.50439H534.957Z" fill="#0096FF" stroke="#0096FF"/>
<path d="M172.414 7.25513L180.024 16.2637H185.731L178.121 7.25513H172.414Z" fill="#0096FF" stroke="#0096FF"/>
<g filter="url(#filter0_f_203_2)">
<path d="M14.8161 187.426L5.9375 173.913V362.342L14.8161 351.081V187.426Z" fill="#0096FF" stroke="#0096FF"/>
<path d="M692.551 348.829L702.539 362.342V173.913L692.551 185.174V348.829Z" fill="#0096FF" stroke="#0096FF"/>
<path d="M227.054 518.49L216.326 529L495.262 528.249L484.534 518.49H227.054Z" fill="#044EBC" stroke="#044EBC"/>
<path d="M502.182 528.625L492.193 517.739H499.592L509.211 528.625H502.182Z" fill="#0096FF" stroke="#0096FF"/>
<path d="M516.721 528.625L506.732 517.739H514.131L523.75 528.625H516.721Z" fill="#0096FF" stroke="#0096FF"/>
<path d="M531.257 528.625L521.269 517.739H528.667L538.286 528.625H531.257Z" fill="#0096FF" stroke="#0096FF"/>
<path d="M545.794 528.625L535.806 517.739H543.205L552.823 528.625H545.794Z" fill="#0096FF" stroke="#0096FF"/>
<path d="M560.333 528.625L550.345 517.739H557.744L567.362 528.625H560.333Z" fill="#0096FF" stroke="#0096FF"/>
<path d="M574.872 528.625L564.884 517.739H572.283L581.901 528.625H574.872Z" fill="#0096FF" stroke="#0096FF"/>
<path d="M589.408 528.625L579.42 517.739H586.819L596.437 528.625H589.408Z" fill="#0096FF" stroke="#0096FF"/>
<path d="M603.945 528.625L593.957 517.739H601.356L610.974 528.625H603.945Z" fill="#0096FF" stroke="#0096FF"/>
<path d="M618.485 528.625L608.496 517.739H615.895L625.513 528.625H618.485Z" fill="#0096FF" stroke="#0096FF"/>
<path d="M212.073 517.739L202.085 528.625H209.484L219.102 517.739H212.073Z" fill="#0096FF" stroke="#0096FF"/>
<path d="M197.536 517.739L187.548 528.625H194.947L204.565 517.739H197.536Z" fill="#0096FF" stroke="#0096FF"/>
<path d="M183 517.739L173.012 528.625H180.411L190.029 517.739H183Z" fill="#0096FF" stroke="#0096FF"/>
<path d="M168.461 517.739L158.473 528.625H165.871L175.49 517.739H168.461Z" fill="#0096FF" stroke="#0096FF"/>
<path d="M153.922 517.739L143.934 528.625H151.332L160.951 517.739H153.922Z" fill="#0096FF" stroke="#0096FF"/>
<path d="M139.385 517.739L129.396 528.625H136.795L146.414 517.739H139.385Z" fill="#0096FF" stroke="#0096FF"/>
<path d="M124.846 517.739L114.857 528.625H122.256L131.875 517.739H124.846Z" fill="#0096FF" stroke="#0096FF"/>
<path d="M110.309 517.739L100.32 528.625H107.719L117.338 517.739H110.309Z" fill="#0096FF" stroke="#0096FF"/>
<path d="M95.7697 517.739L85.7812 528.625H93.1801L102.799 517.739H95.7697Z" fill="#0096FF" stroke="#0096FF"/>
<path d="M563.811 2L558.262 8.75641H595.256L590.447 2H563.811Z" fill="#0096FF" stroke="#0096FF"/>
<path d="M623.003 3.12622L617.084 9.13192H680.714L701.061 34.6561V72.1917L705.5 63.5586V30.5272L684.783 3.12622H623.003Z" fill="#0096FF" stroke="#0096FF"/>
<path d="M83.9969 2.75073L89.916 8.75643H26.286L5.93919 34.2806V71.8163L1.49989 63.1831V30.1517L22.2166 2.75073H83.9969Z" fill="#0096FF" stroke="#0096FF"/>
<path d="M117.292 2.75073L111.743 9.50714H148.737L143.928 2.75073H117.292Z" fill="#0096FF" stroke="#0096FF"/>
</g>
<path d="M23.8111 187.811L6.45898 174.366V361.852L23.8111 350.648V187.811Z" fill="#0096FF" stroke="#0096FF"/>
<path d="M683.191 348.407L703.021 361.852V174.366L683.191 185.571V348.407Z" fill="#0096FF" stroke="#0096FF"/>
<path d="M227.054 518.49L216.326 529L495.262 528.249L484.534 518.49H227.054Z" fill="#0096FF" stroke="#0096FF"/>
<path d="M502.307 528.625L492.318 517.739H499.717L509.336 528.625H502.307Z" fill="#0096FF" stroke="#0096FF"/>
<path d="M516.843 528.625L506.854 517.739H514.253L523.872 528.625H516.843Z" fill="#0096FF" stroke="#0096FF"/>
<path d="M531.38 528.625L521.392 517.739H528.79L538.409 528.625H531.38Z" fill="#0096FF" stroke="#0096FF"/>
<path d="M545.919 528.625L535.931 517.739H543.33L552.948 528.625H545.919Z" fill="#0096FF" stroke="#0096FF"/>
<path d="M560.458 528.625L550.47 517.739H557.869L567.487 528.625H560.458Z" fill="#0096FF" stroke="#0096FF"/>
<path d="M574.995 528.625L565.007 517.739H572.406L582.024 528.625H574.995Z" fill="#0096FF" stroke="#0096FF"/>
<path d="M589.534 528.625L579.546 517.739H586.945L596.563 528.625H589.534Z" fill="#0096FF" stroke="#0096FF"/>
<path d="M604.07 528.625L594.082 517.739H601.481L611.099 528.625H604.07Z" fill="#0096FF" stroke="#0096FF"/>
<path d="M618.61 528.625L608.621 517.739H616.02L625.638 528.625H618.61Z" fill="#0096FF" stroke="#0096FF"/>
<path d="M212.073 517.739L202.085 528.625H209.484L219.102 517.739H212.073Z" fill="#0096FF" stroke="#0096FF"/>
<path d="M197.536 517.739L187.548 528.625H194.947L204.565 517.739H197.536Z" fill="#0096FF" stroke="#0096FF"/>
<path d="M183 517.739L173.012 528.625H180.411L190.029 517.739H183Z" fill="#0096FF" stroke="#0096FF"/>
<path d="M168.461 517.739L158.473 528.625H165.871L175.49 517.739H168.461Z" fill="#0096FF" stroke="#0096FF"/>
<path d="M153.922 517.739L143.934 528.625H151.332L160.951 517.739H153.922Z" fill="#0096FF" stroke="#0096FF"/>
<path d="M139.385 517.739L129.396 528.625H136.795L146.414 517.739H139.385Z" fill="#0096FF" stroke="#0096FF"/>
<path d="M124.846 517.739L114.857 528.625H122.256L131.875 517.739H124.846Z" fill="#0096FF" stroke="#0096FF"/>
<path d="M110.309 517.739L100.32 528.625H107.719L117.338 517.739H110.309Z" fill="#0096FF" stroke="#0096FF"/>
<path d="M95.7697 517.739L85.7812 528.625H93.1801L102.799 517.739H95.7697Z" fill="#0096FF" stroke="#0096FF"/>
<path d="M563.811 2L558.262 8.75641H595.256L590.447 2H563.811Z" fill="#0096FF" stroke="#0096FF"/>
<path d="M623.003 3.12622L617.084 9.13192H680.714L701.061 34.6561V72.1917L705.5 63.5586V30.5272L684.783 3.12622H623.003Z" fill="#0096FF" stroke="#0096FF"/>
<path d="M83.9969 2.75073L89.916 8.75643H26.286L5.93919 34.2806V71.8163L1.49989 63.1831V30.1517L22.2166 2.75073H83.9969Z" fill="#0096FF" stroke="#0096FF"/>
<path d="M117.292 2.75073L111.743 9.50714H148.737L143.928 2.75073H117.292Z" fill="#0096FF" stroke="#0096FF"/>
<defs>
<filter id="filter0_f_203_2" x="0" y="0.5" width="707" height="530.003" filterUnits="userSpaceOnUse" color-interpolation-filters="sRGB">
<feFlood flood-opacity="0" result="BackgroundImageFix"/>
<feBlend mode="normal" in="SourceGraphic" in2="BackgroundImageFix" result="shape"/>
<feGaussianBlur stdDeviation="0.5" result="effect1_foregroundBlur_203_2"/>
</filter>
<linearGradient id="paint0_linear_203_2" x1="354.559" y1="-150.24" x2="354.559" y2="639.414" gradientUnits="userSpaceOnUse">
<stop stop-color="#082951" stop-opacity="0.78"/>
<stop offset="0.916667" stop-color="#062244" stop-opacity="0.2"/>
</linearGradient>
</defs>
</svg>
