<svg width="1318" height="901" viewBox="0 0 1318 901" fill="none" xmlns="http://www.w3.org/2000/svg">
<path d="M29.2852 849.292V65.5258L66.0828 20.4448H317.533L330.481 34.6131H990.794L1000.33 19.1567H1251.1L1293.35 65.5258V846.072L1253.15 892.441H68.1271L29.2852 849.292Z" fill="url(#paint0_linear_203_2)" stroke="#0096FF" stroke-width="2"/>
<path d="M9.79004 855.058V56.8882L47.6479 10.9787H329.038L340.095 25.4074H979.973L991.03 9.66699H1266.81L1310.28 56.8882V851.779L1268.91 899H49.7511L9.79004 855.058Z" stroke="#0096FF" stroke-width="2"/>
<path d="M997.944 9.66699L985.505 26.2781H974.449L987.875 9.66699H997.944Z" fill="#0096FF" stroke="#0096FF"/>
<path d="M320.749 10.9446L334.965 26.2779H345.626L331.411 10.9446H320.749Z" fill="#0096FF" stroke="#0096FF"/>
<g filter="url(#filter0_f_203_2)">
<path d="M26.3744 317.611L9.79004 294.611V615.333L26.3744 596.166V317.611Z" fill="#0096FF" stroke="#0096FF"/>
<path d="M1292.31 592.333L1310.97 615.333V294.611L1292.31 313.778V592.333Z" fill="#0096FF" stroke="#0096FF"/>
<path d="M422.813 881.111L402.773 899L923.798 897.722L903.758 881.111H422.813Z" fill="#044EBC" stroke="#044EBC"/>
<path d="M936.723 898.361L918.065 879.833H931.886L949.852 898.361H936.723Z" fill="#0096FF" stroke="#0096FF"/>
<path d="M963.879 898.361L945.222 879.833H959.042L977.008 898.361H963.879Z" fill="#0096FF" stroke="#0096FF"/>
<path d="M991.031 898.361L972.374 879.833H986.194L1004.16 898.361H991.031Z" fill="#0096FF" stroke="#0096FF"/>
<path d="M1018.19 898.361L999.529 879.833H1013.35L1031.32 898.361H1018.19Z" fill="#0096FF" stroke="#0096FF"/>
<path d="M1045.34 898.361L1026.69 879.833H1040.51L1058.47 898.361H1045.34Z" fill="#0096FF" stroke="#0096FF"/>
<path d="M1072.5 898.361L1053.84 879.833H1067.66L1085.63 898.361H1072.5Z" fill="#0096FF" stroke="#0096FF"/>
<path d="M1099.65 898.361L1081 879.833H1094.82L1112.78 898.361H1099.65Z" fill="#0096FF" stroke="#0096FF"/>
<path d="M1126.81 898.361L1108.15 879.833H1121.97L1139.94 898.361H1126.81Z" fill="#0096FF" stroke="#0096FF"/>
<path d="M1153.96 898.361L1135.31 879.833H1149.13L1167.09 898.361H1153.96Z" fill="#0096FF" stroke="#0096FF"/>
<path d="M394.83 879.833L376.173 898.361H389.993L407.959 879.833H394.83Z" fill="#0096FF" stroke="#0096FF"/>
<path d="M367.676 879.833L349.019 898.361H362.839L380.805 879.833H367.676Z" fill="#0096FF" stroke="#0096FF"/>
<path d="M340.524 879.833L321.866 898.361H335.686L353.653 879.833H340.524Z" fill="#0096FF" stroke="#0096FF"/>
<path d="M313.367 879.833L294.71 898.361H308.53L326.497 879.833H313.367Z" fill="#0096FF" stroke="#0096FF"/>
<path d="M286.208 879.833L267.551 898.361H281.371L299.337 879.833H286.208Z" fill="#0096FF" stroke="#0096FF"/>
<path d="M259.056 879.833L240.398 898.361H254.219L272.185 879.833H259.056Z" fill="#0096FF" stroke="#0096FF"/>
<path d="M231.898 879.833L213.24 898.361H227.061L245.027 879.833H231.898Z" fill="#0096FF" stroke="#0096FF"/>
<path d="M204.743 879.833L186.086 898.361H199.906L217.873 879.833H204.743Z" fill="#0096FF" stroke="#0096FF"/>
<path d="M177.586 879.833L158.929 898.361H172.749L190.715 879.833H177.586Z" fill="#0096FF" stroke="#0096FF"/>
<path d="M1051.84 2L1041.47 13.5H1110.58L1101.59 2H1051.84Z" fill="#0096FF" stroke="#0096FF"/>
<path d="M1162.4 3.91699L1151.35 14.1392H1270.2L1308.21 57.5837V121.473L1316.5 106.778V50.5559L1277.8 3.91699H1162.4Z" fill="#0096FF" stroke="#0096FF"/>
<path d="M155.596 3.27759L166.652 13.4998H47.798L9.79219 56.9443V120.833L1.50003 106.139V49.9165L40.1968 3.27759H155.596Z" fill="#0096FF" stroke="#0096FF"/>
<path d="M217.788 3.27759L207.423 14.7776H276.524L267.541 3.27759H217.788Z" fill="#0096FF" stroke="#0096FF"/>
</g>
<path d="M43.1747 318.267L10.7627 295.382V614.5L43.1747 595.429V318.267Z" fill="#0096FF" stroke="#0096FF"/>
<path d="M1274.83 591.615L1311.87 614.5V295.382L1274.83 314.453V591.615Z" fill="#0096FF" stroke="#0096FF"/>
<path d="M422.813 881.111L402.773 899L923.798 897.722L903.758 881.111H422.813Z" fill="#0096FF" stroke="#0096FF"/>
<path d="M936.955 898.361L918.298 879.833H932.118L950.084 898.361H936.955Z" fill="#0096FF" stroke="#0096FF"/>
<path d="M964.108 898.361L945.45 879.833H959.27L977.237 898.361H964.108Z" fill="#0096FF" stroke="#0096FF"/>
<path d="M991.263 898.361L972.605 879.833H986.426L1004.39 898.361H991.263Z" fill="#0096FF" stroke="#0096FF"/>
<path d="M1018.42 898.361L999.763 879.833H1013.58L1031.55 898.361H1018.42Z" fill="#0096FF" stroke="#0096FF"/>
<path d="M1045.58 898.361L1026.92 879.833H1040.74L1058.71 898.361H1045.58Z" fill="#0096FF" stroke="#0096FF"/>
<path d="M1072.73 898.361L1054.07 879.833H1067.89L1085.86 898.361H1072.73Z" fill="#0096FF" stroke="#0096FF"/>
<path d="M1099.89 898.361L1081.23 879.833H1095.05L1113.02 898.361H1099.89Z" fill="#0096FF" stroke="#0096FF"/>
<path d="M1127.04 898.361L1108.38 879.833H1122.2L1140.17 898.361H1127.04Z" fill="#0096FF" stroke="#0096FF"/>
<path d="M1154.2 898.361L1135.54 879.833H1149.36L1167.33 898.361H1154.2Z" fill="#0096FF" stroke="#0096FF"/>
<path d="M394.83 879.833L376.173 898.361H389.993L407.959 879.833H394.83Z" fill="#0096FF" stroke="#0096FF"/>
<path d="M367.676 879.833L349.019 898.361H362.839L380.805 879.833H367.676Z" fill="#0096FF" stroke="#0096FF"/>
<path d="M340.524 879.833L321.866 898.361H335.686L353.653 879.833H340.524Z" fill="#0096FF" stroke="#0096FF"/>
<path d="M313.367 879.833L294.71 898.361H308.53L326.497 879.833H313.367Z" fill="#0096FF" stroke="#0096FF"/>
<path d="M286.208 879.833L267.551 898.361H281.371L299.337 879.833H286.208Z" fill="#0096FF" stroke="#0096FF"/>
<path d="M259.056 879.833L240.398 898.361H254.219L272.185 879.833H259.056Z" fill="#0096FF" stroke="#0096FF"/>
<path d="M231.898 879.833L213.24 898.361H227.061L245.027 879.833H231.898Z" fill="#0096FF" stroke="#0096FF"/>
<path d="M204.743 879.833L186.086 898.361H199.906L217.873 879.833H204.743Z" fill="#0096FF" stroke="#0096FF"/>
<path d="M177.586 879.833L158.929 898.361H172.749L190.715 879.833H177.586Z" fill="#0096FF" stroke="#0096FF"/>
<path d="M1051.84 2L1041.47 13.5H1110.58L1101.59 2H1051.84Z" fill="#0096FF" stroke="#0096FF"/>
<path d="M1162.4 3.91699L1151.35 14.1392H1270.2L1308.21 57.5837V121.473L1316.5 106.778V50.5559L1277.8 3.91699H1162.4Z" fill="#0096FF" stroke="#0096FF"/>
<path d="M155.596 3.27759L166.652 13.4998H47.798L9.79219 56.9443V120.833L1.50003 106.139V49.9165L40.1968 3.27759H155.596Z" fill="#0096FF" stroke="#0096FF"/>
<path d="M217.788 3.27759L207.423 14.7776H276.524L267.541 3.27759H217.788Z" fill="#0096FF" stroke="#0096FF"/>
<defs>
<filter id="filter0_f_203_2" x="0" y="0.5" width="1318" height="900.003" filterUnits="userSpaceOnUse" color-interpolation-filters="sRGB">
<feFlood flood-opacity="0" result="BackgroundImageFix"/>
<feBlend mode="normal" in="SourceGraphic" in2="BackgroundImageFix" result="shape"/>
<feGaussianBlur stdDeviation="0.5" result="effect1_foregroundBlur_203_2"/>
</filter>
<linearGradient id="paint0_linear_203_2" x1="660.978" y1="-257.126" x2="660.978" y2="1086.93" gradientUnits="userSpaceOnUse">
<stop stop-color="#082951" stop-opacity="0.78"/>
<stop offset="0.916667" stop-color="#062244" stop-opacity="0.2"/>
</linearGradient>
</defs>
</svg>
